<mxfile host="app.diagrams.net" modified="2021-06-25T08:15:15.739Z" agent="5.0 (Windows NT 10.0; Win64; x64) AppleWebKit/537.36 (KHTML, like Gecko) Chrome/93.0.4537.0 Safari/537.36 Edg/93.0.926.0" etag="6SYlogTqBw-nACCkQ4v5" version="14.8.1" type="github">
  <diagram id="hQTl2TPt4TJfU5a7g2ln" name="Page-1">
    <mxGraphModel dx="942" dy="2274" grid="1" gridSize="10" guides="1" tooltips="1" connect="1" arrows="1" fold="1" page="1" pageScale="1" pageWidth="827" pageHeight="1169" math="0" shadow="0">
      <root>
        <mxCell id="0" />
        <mxCell id="1" parent="0" />
        <mxCell id="kfyW_LiC2mDn6is1R6-E-26" style="edgeStyle=orthogonalEdgeStyle;rounded=0;orthogonalLoop=1;jettySize=auto;html=1;endArrow=none;endFill=0;" edge="1" parent="1" source="kfyW_LiC2mDn6is1R6-E-1" target="kfyW_LiC2mDn6is1R6-E-12">
          <mxGeometry relative="1" as="geometry" />
        </mxCell>
        <mxCell id="kfyW_LiC2mDn6is1R6-E-1" value="" style="aspect=fixed;perimeter=ellipsePerimeter;html=1;align=center;shadow=0;dashed=0;spacingTop=3;image;image=img/lib/active_directory/internet_cloud.svg;" vertex="1" parent="1">
          <mxGeometry x="90" y="30" width="158.73" height="100" as="geometry" />
        </mxCell>
        <mxCell id="kfyW_LiC2mDn6is1R6-E-16" style="edgeStyle=orthogonalEdgeStyle;rounded=0;orthogonalLoop=1;jettySize=auto;html=1;exitX=1;exitY=0.75;exitDx=0;exitDy=0;entryX=0;entryY=0.5;entryDx=0;entryDy=0;endArrow=none;endFill=0;" edge="1" parent="1" source="kfyW_LiC2mDn6is1R6-E-8" target="kfyW_LiC2mDn6is1R6-E-12">
          <mxGeometry relative="1" as="geometry" />
        </mxCell>
        <mxCell id="kfyW_LiC2mDn6is1R6-E-8" value="" style="shape=image;html=1;verticalAlign=top;verticalLabelPosition=bottom;labelBackgroundColor=#ffffff;imageAspect=0;aspect=fixed;image=https://cdn4.iconfinder.com/data/icons/BRILLIANT/networking/png/128/access_point.png" vertex="1" parent="1">
          <mxGeometry x="100" y="276" width="128" height="128" as="geometry" />
        </mxCell>
        <mxCell id="kfyW_LiC2mDn6is1R6-E-9" value="" style="shape=image;html=1;verticalAlign=top;verticalLabelPosition=bottom;labelBackgroundColor=#ffffff;imageAspect=0;aspect=fixed;image=https://cdn4.iconfinder.com/data/icons/BRILLIANT/networking/png/128/access_point.png" vertex="1" parent="1">
          <mxGeometry x="100" y="646" width="128" height="128" as="geometry" />
        </mxCell>
        <mxCell id="kfyW_LiC2mDn6is1R6-E-19" style="edgeStyle=orthogonalEdgeStyle;rounded=0;orthogonalLoop=1;jettySize=auto;html=1;entryX=1;entryY=0.75;entryDx=0;entryDy=0;endArrow=none;endFill=0;" edge="1" parent="1" source="kfyW_LiC2mDn6is1R6-E-10" target="kfyW_LiC2mDn6is1R6-E-9">
          <mxGeometry relative="1" as="geometry" />
        </mxCell>
        <mxCell id="kfyW_LiC2mDn6is1R6-E-10" value="" style="verticalLabelPosition=bottom;aspect=fixed;html=1;verticalAlign=top;strokeColor=none;align=center;outlineConnect=0;shape=mxgraph.citrix.switch;" vertex="1" parent="1">
          <mxGeometry x="530" y="690" width="92" height="41.5" as="geometry" />
        </mxCell>
        <mxCell id="kfyW_LiC2mDn6is1R6-E-18" style="edgeStyle=orthogonalEdgeStyle;rounded=0;orthogonalLoop=1;jettySize=auto;html=1;endArrow=none;endFill=0;" edge="1" parent="1" source="kfyW_LiC2mDn6is1R6-E-11" target="kfyW_LiC2mDn6is1R6-E-10">
          <mxGeometry relative="1" as="geometry" />
        </mxCell>
        <mxCell id="kfyW_LiC2mDn6is1R6-E-11" value="" style="verticalLabelPosition=bottom;aspect=fixed;html=1;verticalAlign=top;strokeColor=none;align=center;outlineConnect=0;shape=mxgraph.citrix.switch;" vertex="1" parent="1">
          <mxGeometry x="530" y="319.25" width="92" height="41.5" as="geometry" />
        </mxCell>
        <mxCell id="kfyW_LiC2mDn6is1R6-E-17" style="edgeStyle=orthogonalEdgeStyle;rounded=0;orthogonalLoop=1;jettySize=auto;html=1;exitX=1;exitY=0.5;exitDx=0;exitDy=0;endArrow=none;endFill=0;" edge="1" parent="1" source="kfyW_LiC2mDn6is1R6-E-12" target="kfyW_LiC2mDn6is1R6-E-11">
          <mxGeometry relative="1" as="geometry" />
        </mxCell>
        <mxCell id="kfyW_LiC2mDn6is1R6-E-12" value="" style="image;html=1;image=img/lib/clip_art/networking/Router_Icon_128x128.png" vertex="1" parent="1">
          <mxGeometry x="349" y="300" width="80" height="80" as="geometry" />
        </mxCell>
        <mxCell id="kfyW_LiC2mDn6is1R6-E-22" style="edgeStyle=orthogonalEdgeStyle;rounded=0;orthogonalLoop=1;jettySize=auto;html=1;endArrow=none;endFill=0;" edge="1" parent="1" source="kfyW_LiC2mDn6is1R6-E-20">
          <mxGeometry relative="1" as="geometry">
            <mxPoint x="430" y="340" as="targetPoint" />
          </mxGeometry>
        </mxCell>
        <mxCell id="kfyW_LiC2mDn6is1R6-E-20" value="" style="pointerEvents=1;shadow=0;dashed=0;html=1;strokeColor=none;fillColor=#505050;labelPosition=center;verticalLabelPosition=bottom;verticalAlign=top;outlineConnect=0;align=center;shape=mxgraph.office.devices.tv;" vertex="1" parent="1">
          <mxGeometry x="719" y="250" width="59" height="45" as="geometry" />
        </mxCell>
        <mxCell id="kfyW_LiC2mDn6is1R6-E-25" style="edgeStyle=orthogonalEdgeStyle;rounded=0;orthogonalLoop=1;jettySize=auto;html=1;endArrow=none;endFill=0;" edge="1" parent="1" source="kfyW_LiC2mDn6is1R6-E-23">
          <mxGeometry relative="1" as="geometry">
            <mxPoint x="430" y="330" as="targetPoint" />
          </mxGeometry>
        </mxCell>
        <mxCell id="kfyW_LiC2mDn6is1R6-E-23" value="" style="shape=image;html=1;verticalAlign=top;verticalLabelPosition=bottom;labelBackgroundColor=#ffffff;imageAspect=0;aspect=fixed;image=https://cdn2.iconfinder.com/data/icons/mobile-smart-phone/64/Mobile_idea_startup_bulb_light-128.png" vertex="1" parent="1">
          <mxGeometry x="719" y="160" width="58" height="58" as="geometry" />
        </mxCell>
        <mxCell id="kfyW_LiC2mDn6is1R6-E-28" style="edgeStyle=orthogonalEdgeStyle;rounded=0;orthogonalLoop=1;jettySize=auto;html=1;endArrow=none;endFill=0;" edge="1" parent="1" source="kfyW_LiC2mDn6is1R6-E-27">
          <mxGeometry relative="1" as="geometry">
            <mxPoint x="430" y="330" as="targetPoint" />
          </mxGeometry>
        </mxCell>
        <mxCell id="kfyW_LiC2mDn6is1R6-E-27" value="" style="verticalLabelPosition=bottom;aspect=fixed;html=1;verticalAlign=top;strokeColor=none;align=center;outlineConnect=0;shape=mxgraph.citrix.printer;" vertex="1" parent="1">
          <mxGeometry x="714" y="50" width="70" height="70" as="geometry" />
        </mxCell>
        <mxCell id="kfyW_LiC2mDn6is1R6-E-31" style="edgeStyle=orthogonalEdgeStyle;rounded=0;orthogonalLoop=1;jettySize=auto;html=1;endArrow=none;endFill=0;" edge="1" parent="1" source="kfyW_LiC2mDn6is1R6-E-29" target="kfyW_LiC2mDn6is1R6-E-11">
          <mxGeometry relative="1" as="geometry">
            <mxPoint x="748" y="330" as="targetPoint" />
            <Array as="points">
              <mxPoint x="740" y="340" />
            </Array>
          </mxGeometry>
        </mxCell>
        <mxCell id="kfyW_LiC2mDn6is1R6-E-29" value="" style="image;html=1;image=img/lib/clip_art/computers/Server_128x128.png" vertex="1" parent="1">
          <mxGeometry x="708" y="430" width="80" height="80" as="geometry" />
        </mxCell>
        <mxCell id="kfyW_LiC2mDn6is1R6-E-33" style="edgeStyle=orthogonalEdgeStyle;rounded=0;orthogonalLoop=1;jettySize=auto;html=1;endArrow=none;endFill=0;" edge="1" parent="1" source="kfyW_LiC2mDn6is1R6-E-32" target="kfyW_LiC2mDn6is1R6-E-10">
          <mxGeometry relative="1" as="geometry" />
        </mxCell>
        <mxCell id="kfyW_LiC2mDn6is1R6-E-32" value="" style="points=[];aspect=fixed;html=1;align=center;shadow=0;dashed=0;image;image=img/lib/allied_telesis/computer_and_terminals/Personal_Computer_with_Server.svg;" vertex="1" parent="1">
          <mxGeometry x="719" y="679.55" width="62.400000000000006" height="62.400000000000006" as="geometry" />
        </mxCell>
        <mxCell id="kfyW_LiC2mDn6is1R6-E-35" style="edgeStyle=orthogonalEdgeStyle;rounded=0;orthogonalLoop=1;jettySize=auto;html=1;endArrow=none;endFill=0;" edge="1" parent="1" source="kfyW_LiC2mDn6is1R6-E-34" target="kfyW_LiC2mDn6is1R6-E-10">
          <mxGeometry relative="1" as="geometry" />
        </mxCell>
        <mxCell id="kfyW_LiC2mDn6is1R6-E-34" value="" style="pointerEvents=1;shadow=0;dashed=0;html=1;strokeColor=none;fillColor=#505050;labelPosition=center;verticalLabelPosition=bottom;verticalAlign=top;outlineConnect=0;align=center;shape=mxgraph.office.devices.tv;" vertex="1" parent="1">
          <mxGeometry x="720.7" y="790" width="59" height="45" as="geometry" />
        </mxCell>
      </root>
    </mxGraphModel>
  </diagram>
</mxfile>
